#!OML:ASF E:\acrobat2\Project_11_07_03\Capture day 1\Session 1\Acrobat.ASF
:FULLY-SPECIFIED
:DEGREES
1224
root 4.8176 16.0811 19.9997 35.532 5.1717 3.31249
lowerback 26.9733 -0.815012 -0.79173
upperback 13.0342 -1.27874 -4.79474
thorax -0.481186 -0.424499 -4.44582
lowerneck 6.97719 -1.47481 4.31617
upperneck 8.57624 -2.3178 12.6246
head 1.67181 -0.902002 3.39166
rclavicle -3.10104e-014 -2.88238e-014
rhumerus 19.2303 -66.3062 1.97372
rradius 78.0582
rwrist -25.6717
rhand -5.07221 -33.629
rfingers 7.12502
rthumb 20.724 -62.5424
lclavicle -3.10104e-014 -2.88238e-014
lhumerus 66.468 67.4093 52.2962
lradius 69.4174
lwrist 75.125
lhand -29.7583 -13.0164
lfingers 7.12502
lthumb -3.084 16.9411
rfemur -100.789 -40.847 30.6055
rtibia 67.5529
rfoot -8.26626 -19.4153
rtoes -10.943
lfemur -96.6456 38.6128 -26.9998
ltibia 58.7778
lfoot 2.20048 3.22435
ltoes 24.5014
1225
root 4.80287 16.0985 19.9652 35.3209 4.97275 3.39239
lowerback 26.9566 -0.867586 -1.04712
upperback 13.2373 -1.39683 -5.0043
thorax -0.250094 -0.480469 -4.50121
lowerneck 7.07403 -1.93574 4.041
upperneck 10.8818 -3.1163 11.4488
head 2.44374 -1.18913 3.06574
rclavicle -2.5842e-014 2.08724e-015
rhumerus 16.4082 -67.8282 4.7647
rradius 78.3492
rwrist -28.0673
rhand -4.60903 -33.8298
rfingers 7.12502
rthumb 21.169 -62.694
lclavicle -2.5842e-014 2.08724e-015
lhumerus 72.7485 69.3864 58.3241
lradius 71.8565
lwrist 75.3454
lhand -30.1209 -13.4677
lfingers 7.12502
lthumb -3.43417 16.4844
rfemur -100.552 -41.5734 30.0692
rtibia 69.2988
rfoot -9.9498 -20.4405
rtoes -10.294
lfemur -96.4361 39.3909 -26.3563
ltibia 61.407
lfoot 1.30547 2.07214
ltoes 23.7083
1226
root 4.78875 16.1005 19.9307 35.0228 4.80414 3.482
lowerback 26.9891 -0.933972 -1.16013
upperback 13.3925 -1.50738 -5.28812
thorax -0.0992065 -0.524328 -4.72325
lowerneck 7.15175 -2.3494 3.76944
upperneck 13.2698 -3.79744 10.1828
head 3.25427 -1.43586 2.712
rclavicle -1.51076e-014 5.36719e-015
rhumerus 12.8335 -69.0172 8.0907
rradius 78.8347
rwrist -30.998
rhand -4.06328 -34.014
rfingers 7.12502
rthumb 21.6932 -62.8186
lclavicle -1.51076e-014 5.36719e-015
lhumerus 79.2224 70.6918 64.4064
lradius 74.5132
lwrist 75.4579
lhand -30.1975 -14.2812
lfingers 7.12502
lthumb -3.50823 15.6697
rfemur -100.212 -42.338 29.3251
rtibia 71.275
rfoot -11.4443 -21.4379
rtoes -9.44078
lfemur -96.1915 40.1453 -25.6595
ltibia 64.1722
lfoot 0.413918 1.07847
ltoes 23.0369
1227
root 4.77605 16.0881 19.8964 34.6621 4.66618 3.57948
lowerback 27.0485 -1.01388 -1.16234
upperback 13.4991 -1.61591 -5.61682
thorax -0.0196408 -0.560961 -5.05987
lowerneck 7.20771 -2.71602 3.56906
upperneck 15.6748 -4.33629 8.72001
head 4.08501 -1.63501 2.27496
rclavicle -1.66979e-014 -6.30147e-014
rhumerus 8.81175 -69.8855 11.7143
rradius 79.526
rwrist -34.4807
rhand -3.54034 -34.2878
rfingers 7.12502
rthumb 22.1953 -63.0335
lclavicle -1.66979e-014 -6.30147e-014
lhumerus 85.163 71.4317 69.8413
lradius 77.3347
lwrist 75.3014
lhand -30.1177 -15.377
lfingers 7.12502
lthumb -3.43109 14.5751
rfemur -99.8165 -43.1328 28.4612
rtibia 73.4336
rfoot -12.8947 -22.569
rtoes -9.14672
lfemur -95.9121 40.8691 -24.9203
ltibia 67.0041
lfoot -0.533879 0.290544
ltoes 22.5514
1228
root 4.76443 16.0623 19.8614 34.2786 4.55944 3.68724
lowerback 27.0971 -1.09847 -1.12641
upperback 13.5615 -1.72394 -5.93993
thorax 0.013134 -0.596668 -5.41287
lowerneck 6.8465 -2.98049 3.21427
upperneck 18.7372 -4.77366 7.35743
head 4.64047 -1.76036 1.6651
rclavicle -7.95139e-015 -2.66371e-014
rhumerus 4.81418 -70.5028 15.2596
rradius 80.4026
rwrist -38.4449
rhand -3.17361 -34.7269
rfingers 7.12502
rthumb 22.5473 -63.4303
lclavicle -7.95139e-015 -2.66371e-014
lhumerus 89.9483 71.7948 74.0555
lradius 80.2686
lwrist 74.7594
lhand -30.0253 -16.5177
lfingers 7.12502
lthumb -3.34192 13.4359
rfemur -99.4351 -43.94 27.561
rtibia 75.7315
rfoot -14.4927 -24.0902
rtoes -9.5472
lfemur -95.6428 41.5531 -24.1818
ltibia 69.86
lfoot -1.61849 -0.295221
ltoes 22.6121
1229
root 4.75251 16.024 19.8257 33.892 4.49363 3.79221
lowerback 27.1116 -1.17645 -1.12993
upperback 13.5954 -1.83004 -6.19601
thorax 0.0305066 -0.63694 -5.66908
lowerneck 6.56435 -3.17075 2.96301
upperneck 21.28 -4.92836 5.59289
head 5.45346 -1.8319 1.14262
rclavicle 1.66979e-014 -1.43125e-014
rhumerus 1.31392 -70.9826 18.331
rradius 81.4415
rwrist -42.7176
rhand -3.0858 -35.338
rfingers 7.12502
rthumb 22.6316 -64.0311
lclavicle 1.66979e-014 -1.43125e-014
lhumerus 93.2954 71.9766 76.8265
lradius 83.2915
lwrist 73.8056
lhand -30.0393 -17.5504
lfingers 7.12502
lthumb -3.35542 12.403
rfemur -99.0939 -44.7464 26.6843
rtibia 78.1157
rfoot -16.4873 -26.42
rtoes -10.4563
lfemur -95.4217 42.2038 -23.4686
ltibia 72.7061
lfoot -2.96118 -0.678932
ltoes 23.2763
1230
root 4.73951 15.9745 19.7895 33.5055 4.46887 3.86278
lowerback 27.0953 -1.23817 -1.20696
upperback 13.6091 -1.928 -6.35341
thorax 0.0432567 -0.681787 -5.77442
lowerneck 6.14132 -3.26469 2.63612
upperneck 23.6703 -4.86569 3.7667
head 6.25 -1.84469 0.604784
rclavicle -1.90833e-014 -5.02925e-014
rhumerus -1.3852 -71.4166 20.6606
rradius 82.5992
rwrist -47.0437
rhand -3.3448 -36.0593
rfingers 7.12502
rthumb 22.383 -64.7826
lclavicle -1.90833e-014 -5.02925e-014
lhumerus 95.0368 72.1263 78.0297
lradius 86.4108
lwrist 72.5858
lhand -30.2833 -18.3095
lfingers 7.12502
lthumb -3.59107 11.6399
rfemur -98.7833 -45.5195 25.8723
rtibia 80.7542
rfoot -28.0239 -40.8239
rtoes -11.3566
lfemur -95.2658 42.847 -22.775
ltibia 75.5184
lfoot -4.79574 -0.792791
ltoes 24.2921
1231
root 4.72493 15.9138 19.7522 33.1453 4.47007 3.8912
lowerback 27.0167 -1.26072 -1.43878
upperback 13.6091 -2.00317 -6.36295
thorax 0.0790028 -0.729971 -5.63044
lowerneck 5.55965 -3.26688 2.17768
upperneck 25.8362 -4.59829 1.93432
head 7.01851 -1.81047 0.0786284
rclavicle -3.18055e-014 -2.00773e-014
rhumerus -2.99893 -71.8913 22.0105
rradius 83.8384
rwrist -51.0886
rhand -3.91285 -36.7768
rfingers 7.12502
rthumb 21.8376 -65.5646
lclavicle -3.18055e-014 -2.00773e-014
lhumerus 95.1115 72.3643 77.6909
lradius 89.6396
lwrist 71.3284
lhand -30.8106 -18.8148
lfingers 7.12502
lthumb -4.1002 11.1255
rfemur -98.5215 -46.2228 25.134
rtibia 83.3722
rfoot -44.8131 -53.9258
rtoes -12.1053
lfemur -95.2262 43.4972 -22.1414
ltibia 78.284
lfoot -7.54621 -0.44581
ltoes 25.4906
1232
root 4.70869 15.8423 19.7138 32.8156 4.47553 3.88804
lowerback 26.8712 -1.25019 -1.808
upperback 13.6073 -2.05949 -6.26736
thorax 0.153322 -0.780515 -5.29534
lowerneck 4.84155 -3.18441 1.61692
upperneck 27.6998 -4.15535 0.192265
head 7.73603 -1.73624 -0.407363
rclavicle 1.43125e-014 8.34896e-015
rhumerus -3.4439 -72.4334 22.2549
rradius 85.0944
rwrist -54.4761
rhand -4.64138 -37.3829
rfingers 7.12502
rthumb 21.1379 -66.2506
lclavicle 1.43125e-014 8.34896e-015
lhumerus 93.6698 72.6321 75.9187
lradius 92.9839
lwrist 70.1489
lhand -31.6189 -19.0719
lfingers 7.12502
lthumb -4.88079 10.8519
rfemur -98.3089 -46.8419 24.4613
rtibia 85.3488
rfoot -73.1618 -63.2181
rtoes -12.4823
lfemur -95.3037 44.1667 -21.6001
ltibia 81.1261
lfoot -21.9999 5.90124
ltoes 26.6085
1233
root 4.69083 15.7604 19.6743 32.5065 4.46968 3.86858
lowerback 26.6804 -1.21859 -2.31208
upperback 13.6037 -2.11241 -6.09149
thorax 0.255952 -0.84008 -4.79604
lowerneck 4.02308 -3.01589 0.941155
upperneck 29.196 -3.55915 -1.3894
head 8.3767 -1.62572 -0.822611
rclavicle 6.36111e-015 2.78299e-015
rhumerus -2.53554 -73.0326 21.1756
rradius 86.3306
rwrist -56.8682
rhand -5.33633 -37.7956
rfingers 7.12502
rthumb 20.4702 -66.7365
lclavicle 6.36111e-015 2.78299e-015
lhumerus 90.6702 72.9017 72.6324
lradius 96.3556
lwrist 69.0614
lhand -32.642 -19.287
lfingers 7.12502
lthumb -5.86856 10.6118
rfemur -98.1216 -47.3742 23.8302
rtibia 86.2498
rfoot -112.299 -63.7749
rtoes -12.2867
lfemur -95.4706 44.8602 -21.1639
ltibia 83.7808
lfoot -36.872 11.8721
ltoes 27.4204
1234
root 4.67129 15.6682 19.6324 32.2099 4.46236 3.8478
lowerback 26.4601 -1.18574 -2.9107
upperback 13.5938 -2.17931 -5.86841
thorax 0.372497 -0.91404 -4.18975
lowerneck 3.19507 -2.78207 0.193674
upperneck 30.2646 -2.85693 -2.79745
head 8.89811 -1.48883 -1.16318
rclavicle 1.98785e-014 1.47101e-014
rhumerus -0.174757 -73.625 18.6194
rradius 87.5124
rwrist -58.0393
rhand -5.8218 -37.9759
rfingers 7.12502
rthumb 20.0037 -66.9662
lclavicle 1.98785e-014 1.47101e-014
lhumerus 86.0885 73.0625 67.7525
lradius 99.6491
lwrist 67.9096
lhand -33.7852 -19.671
lfingers 7.12502
lthumb -6.97222 10.1942
rfemur -97.942 -47.8339 23.2263
rtibia 85.9032
rfoot -141.989 -55.1651
rtoes -11.7331
lfemur -95.706 45.5519 -20.8284
ltibia 85.7307
lfoot -52.3556 17.3039
ltoes 28.036
1235
root 4.65126 15.5658 19.5877 31.9021 4.47261 3.80675
lowerback 26.2432 -1.18135 -3.50827
upperback 13.5675 -2.28075 -5.64114
thorax 0.471907 -1.00591 -3.57406
lowerneck 2.47022 -2.49563 -0.56538
upperneck 30.8728 -2.09287 -4.02908
head 9.25793 -1.32916 -1.43178
rclavicle 2.46493e-014 4.13472e-014
rhumerus 3.56654 -74.1054 14.5797
rradius 88.6512
rwrist -57.9882
rhand -6.00292 -37.932
rfingers 7.12502
rthumb 19.8296 -66.9405
lclavicle 2.46493e-014 4.13472e-014
lhumerus 80.011 72.9568 61.301
lradius 102.752
lwrist 66.44
lhand -34.9261 -20.3981
lfingers 7.12502
lthumb -8.07347 9.42773
rfemur -97.7226 -48.2387 22.6554
rtibia 84.4366
rfoot -158.972 -42.1718
rtoes -11.0214
lfemur -95.9748 46.2297 -20.5403
ltibia 86.6415
lfoot -68.6351 21.8543
ltoes 28.6496
1236
root 4.6319 15.4532 19.5403 31.5636 4.53061 3.72752
lowerback 26.0596 -1.24178 -3.98891
upperback 13.5244 -2.44178 -5.45898
thorax 0.532713 -1.11939 -3.06206
lowerneck 1.91949 -2.15428 -1.28859
upperneck 31.0047 -1.3022 -5.06121
head 9.42627 -1.14376 -1.62399
rclavicle 3.65764e-014 -3.97569e-015
rhumerus 8.42367 -74.3801 9.25601
rradius 89.7727
rwrist -56.923
rhand -5.88834 -37.6987
rfingers 7.12502
rthumb 19.9397 -66.6957
lclavicle 3.65764e-014 -3.97569e-015
lhumerus 72.8547 72.4237 53.6286
lradius 105.553
lwrist 64.4221
lhand -35.8456 -21.5811
lfingers 7.12502
lthumb -8.96078 8.20865
rfemur -97.392 -48.6227 22.0959
rtibia 82.2483
rfoot -169.539 -27.5278
rtoes -9.83384
lfemur -96.2554 46.8736 -20.255
ltibia 86.3907
lfoot -85.7697 25.0513
ltoes 29.3661
